<svg xmlns="http://www.w3.org/2000/svg" viewBox="0 0 64 64">
  <defs>
    <linearGradient id="shirli-favicon-gradient" x1="0" y1="0" x2="1" y2="0">
      <stop offset="0%" stop-color="#ec1a8f" />
      <stop offset="52%" stop-color="#9333ea" />
      <stop offset="100%" stop-color="#3b5bfd" />
    </linearGradient>
  </defs>

  <rect width="64" height="64" rx="14" fill="#fdf8ff" />

  <g fill="url(#shirli-favicon-gradient)">
    <rect x="6" y="27" width="3.6" height="10" rx="1.8" />
    <rect x="12" y="23.6" width="3.6" height="16.8" rx="1.8" />
    <rect x="18" y="18.8" width="3.6" height="26.4" rx="1.8" />
    <rect x="24" y="14" width="3.6" height="36" rx="1.8" />
    <rect x="30" y="11.2" width="3.6" height="41.6" rx="1.8" />
    <rect x="36" y="14" width="3.6" height="36" rx="1.8" />
    <rect x="42" y="18.8" width="3.6" height="26.4" rx="1.8" />
    <rect x="48" y="23.6" width="3.6" height="16.8" rx="1.8" />
    <rect x="54" y="27" width="3.6" height="10" rx="1.8" />
  </g>

  <g fill="#fdf8ff">
    <ellipse cx="33.5" cy="43.5" rx="4.6" ry="3.4" />
    <rect x="37" y="16" width="2.4" height="28" rx="1.2" />
    <path d="M39,16 C48,19 48.6,29 40.8,30.8 C46.2,26.8 45.6,20 39,16 Z" />
  </g>
</svg>
